<?xml version="1.0" encoding="UTF-8" standalone="no"?>
<!DOCTYPE svg PUBLIC "-//W3C//DTD SVG 1.1//EN" "http://www.w3.org/Graphics/SVG/1.1/DTD/svg11.dtd">
<svg width="100%" height="100%" viewBox="0 0 500 500" version="1.1" xmlns="http://www.w3.org/2000/svg" xmlns:xlink="http://www.w3.org/1999/xlink" xml:space="preserve" xmlns:serif="http://www.serif.com/" style="fill-rule:evenodd;clip-rule:evenodd;stroke-linejoin:round;stroke-miterlimit:2;">
    <rect id="house" x="0" y="0" width="500" height="500" style="fill:white;"/>
    <g id="house1" serif:id="house">
        <path id="building" d="M381,236.5C381,212.492 361.508,193 337.5,193L158.5,193C134.492,193 115,212.492 115,236.5L115,323.5C115,347.508 134.492,367 158.5,367L337.5,367C361.508,367 381,347.508 381,323.5L381,236.5Z" style="fill:rgb(226,21,21);"/>
        <g id="roof" transform="matrix(1,0,0,1,-15.5,0)">
            <path d="M265.5,21L375,193L156,193L265.5,21Z" style="fill:rgb(255,173,21);"/>
        </g>
        <path id="window" d="M221,244.25C221,234.178 212.822,226 202.75,226L166.25,226C156.178,226 148,234.178 148,244.25L148,295.75C148,305.822 156.178,314 166.25,314L202.75,314C212.822,314 221,305.822 221,295.75L221,244.25Z" style="fill:white;"/>
        <g id="window1" serif:id="window" transform="matrix(1,0,0,1,127,0)">
            <path d="M221,244.25C221,234.178 212.822,226 202.75,226L166.25,226C156.178,226 148,234.178 148,244.25L148,295.75C148,305.822 156.178,314 166.25,314L202.75,314C212.822,314 221,305.822 221,295.75L221,244.25Z" style="fill:white;"/>
        </g>
    </g>
</svg>
